<svg xmlns="http://www.w3.org/2000/svg" viewBox="0 0 80 80"><defs><style>.a{fill:#e2eaed;}.b{fill:#909699;}.c{fill:#62c5ff;}</style></defs><path class="a" d="M23.08,46.06a8.76,8.76,0,0,1-1.89-.21,12.18,12.18,0,0,1,2.18-24.17,12.37,12.37,0,0,1,3.88.64l.22.08.09-.22a15.06,15.06,0,0,1,29,5.73v.25h3.33a9,9,0,0,1,0,17.9Z"/><path class="b" d="M41.48,13.11a14.82,14.82,0,0,1,14.8,14.8v.5h3.59a8.7,8.7,0,0,1,0,17.4H23.08a9.2,9.2,0,0,1-1.86-.2,11.94,11.94,0,1,1,6-23l.44.15.18-.43a14.76,14.76,0,0,1,13.69-9.17m0-.5a15.29,15.29,0,0,0-14.15,9.48,12.43,12.43,0,1,0-6.2,24,9.63,9.63,0,0,0,1.95.21H59.87a9.2,9.2,0,0,0,0-18.4H56.78a15.3,15.3,0,0,0-15.3-15.3Z"/><rect class="c" x="52.79" y="60.39" width="2" height="7" rx="1"/><rect class="c" x="52.79" y="37.5" width="2" height="18" rx="1"/><rect class="c" x="43.4" y="53.27" width="2" height="7" rx="1"/><rect class="c" x="43.4" y="30.38" width="2" height="18" rx="1"/><rect class="c" x="34" y="60.39" width="2" height="7" rx="1"/><rect class="c" x="34" y="37.5" width="2" height="18" rx="1"/><rect class="c" x="24.6" y="53.27" width="2" height="7" rx="1"/><rect class="c" x="24.6" y="30.38" width="2" height="18" rx="1"/></svg>