<svg xmlns="http://www.w3.org/2000/svg" viewBox="0 0 61.02 54.83"><defs><style>.a{fill:#ffd400;}.b{fill:#fff;}.c{fill:#909699;}.d{fill:#62c5ff;}</style></defs><path class="a" d="M24.23,0a16.47,16.47,0,0,1,1,7.36A16.63,16.63,0,0,1,0,20,17.79,17.79,0,1,0,24.23,0Z"/><path class="b" d="M23,38.18a6.9,6.9,0,0,1,0-13.8h2.65v-.25A11.66,11.66,0,0,1,48,19.69l.09.22.22-.07A9.41,9.41,0,1,1,53,38a6.75,6.75,0,0,1-1.47.16Z"/><path class="c" d="M37.27,12.73a11.37,11.37,0,0,1,10.54,7.06l.18.43.44-.15A9.17,9.17,0,1,1,53,37.78a6.76,6.76,0,0,1-1.41.15H23a6.65,6.65,0,0,1,0-13.3h2.9v-.5a11.42,11.42,0,0,1,11.41-11.4m0-.5a11.9,11.9,0,0,0-11.91,11.9H23a7.15,7.15,0,0,0,0,14.3H51.57a7.43,7.43,0,0,0,1.51-.16,9.67,9.67,0,0,0-1.73-19.18,9.52,9.52,0,0,0-3.08.51,11.88,11.88,0,0,0-11-7.37Z"/><path class="d" d="M45,45.93,47.8,44.3,45,42.67a.42.42,0,0,1-.16-.57.43.43,0,0,1,.58-.16l2.82,1.63V40.31a.42.42,0,0,1,.84,0v3.26l2.83-1.63a.43.43,0,0,1,.57.16.41.41,0,0,1-.15.57L49.48,44.3l2.83,1.63a.42.42,0,0,1,.15.58.41.41,0,0,1-.57.15L49.06,45v3.26a.42.42,0,1,1-.84,0V45L45.4,46.66a.42.42,0,0,1-.58-.15A.43.43,0,0,1,45,45.93Z"/><path class="d" d="M23.49,45.93l2.82-1.63-2.82-1.63a.42.42,0,0,1-.16-.57.43.43,0,0,1,.58-.16l2.82,1.63V40.31a.42.42,0,1,1,.84,0v3.26l2.83-1.63a.43.43,0,0,1,.57.16.41.41,0,0,1-.15.57L28,44.3l2.83,1.63a.42.42,0,0,1,.15.58.41.41,0,0,1-.57.15L27.57,45v3.26a.42.42,0,1,1-.84,0V45l-2.82,1.63a.42.42,0,0,1-.58-.15A.43.43,0,0,1,23.49,45.93Z"/><path class="d" d="M34.23,51.65l3.23-1.86-3.23-1.86a.49.49,0,0,1-.18-.66.48.48,0,0,1,.66-.17L37.94,49V45.23a.48.48,0,0,1,.48-.48.49.49,0,0,1,.48.48V49l3.22-1.86a.48.48,0,0,1,.66.17.49.49,0,0,1-.18.66l-3.22,1.86,3.22,1.86a.48.48,0,0,1-.48.84L38.9,50.62v3.73a.49.49,0,0,1-.48.48.48.48,0,0,1-.48-.48V50.62l-3.23,1.87a.48.48,0,1,1-.48-.84Z"/></svg>