<svg xmlns="http://www.w3.org/2000/svg" viewBox="0 0 80 80"><defs><style>.a{fill:#ffd400;}</style></defs><circle class="a" cx="40" cy="40" r="19.66"/><rect class="a" x="39.46" y="10.62" width="1.08" height="5.4" rx="0.5"/><rect class="a" x="66.14" y="37.3" width="1.08" height="5.4" rx="0.5" transform="translate(106.68 -26.68) rotate(90)"/><rect class="a" x="39.46" y="63.98" width="1.08" height="5.4" rx="0.5" transform="translate(80 133.35) rotate(-180)"/><rect class="a" x="12.78" y="37.3" width="1.08" height="5.4" rx="0.5" transform="translate(-26.68 53.32) rotate(-90)"/><rect class="a" x="58.32" y="18.44" width="1.08" height="5.4" rx="0.5" transform="translate(32.19 -35.43) rotate(45)"/><rect class="a" x="58.32" y="56.16" width="1.08" height="5.4" rx="0.5" transform="translate(142.11 58.86) rotate(135)"/><rect class="a" x="20.6" y="56.16" width="1.08" height="5.4" rx="0.5" transform="translate(-5.54 115.43) rotate(-135)"/><rect class="a" x="20.6" y="18.44" width="1.08" height="5.4" rx="0.5" transform="translate(-8.76 21.14) rotate(-45)"/></svg>