<svg xmlns="http://www.w3.org/2000/svg" viewBox="0 0 51.79 45.12"><defs><style>.a{fill:#fff;}.b{fill:#909699;}.c{fill:#ffd400;}</style></defs><path class="a" d="M8.22,37.37A6.15,6.15,0,0,1,7,37.24,8.16,8.16,0,0,1,8.41,21.05a8,8,0,0,1,2.6.43l.22.07.09-.21a10.1,10.1,0,0,1,19.44,3.84v.25H33.1a6,6,0,0,1,0,11.94Z"/><path class="b" d="M20.66,15.33a9.86,9.86,0,0,1,9.85,9.85v.5H33.1a5.72,5.72,0,0,1,0,11.44H8.22A5.85,5.85,0,0,1,7,37,7.91,7.91,0,0,1,8.41,21.3a7.79,7.79,0,0,1,2.52.42l.44.15.18-.44a9.83,9.83,0,0,1,9.11-6.1m0-.5a10.35,10.35,0,0,0-9.57,6.41A8.41,8.41,0,1,0,6.9,37.48a6.43,6.43,0,0,0,1.32.14H33.1a6.22,6.22,0,0,0,0-12.44H31A10.35,10.35,0,0,0,20.66,14.83Z"/><path class="c" d="M38.36,0a16.47,16.47,0,0,1,1,7.36A16.63,16.63,0,0,1,14.13,20,17.79,17.79,0,1,0,38.36,0Z"/><path class="a" d="M15.92,44.87a6.69,6.69,0,0,1-1.47-.16A9.45,9.45,0,0,1,16.14,26a9.23,9.23,0,0,1,3,.5l.22.07.09-.22A11.69,11.69,0,0,1,42,30.77V31h2.66a6.93,6.93,0,0,1,0,13.85Z"/><path class="b" d="M30.27,19.33A11.46,11.46,0,0,1,41.71,30.77v.5h2.91a6.68,6.68,0,0,1,0,13.35H15.92a7.09,7.09,0,0,1-1.43-.15A9.2,9.2,0,1,1,19.07,26.7l.44.15.18-.43a11.4,11.4,0,0,1,10.58-7.09m0-.5a11.94,11.94,0,0,0-11,7.4,9.58,9.58,0,0,0-3.09-.51A9.7,9.7,0,0,0,14.4,45a7.61,7.61,0,0,0,1.52.16h28.7a7.18,7.18,0,0,0,0-14.35H42.21A12,12,0,0,0,30.27,18.83Z"/></svg>