<svg xmlns="http://www.w3.org/2000/svg" viewBox="0 0 56.28 62.29"><defs><style>.a{fill:#ffd400;}.b{fill:#fff;}.c{fill:#909699;}</style></defs><circle class="a" cx="34.22" cy="22.07" r="14.76"/><rect class="a" x="33.81" width="0.81" height="4.06" rx="0.41"/><rect class="a" x="53.85" y="20.04" width="0.81" height="4.06" rx="0.41" transform="translate(76.32 -32.19) rotate(90)"/><rect class="a" x="33.81" y="40.08" width="0.81" height="4.06" rx="0.41" transform="translate(68.43 84.21) rotate(180)"/><rect class="a" x="13.77" y="20.04" width="0.81" height="4.06" rx="0.41" transform="translate(-7.89 36.24) rotate(-90)"/><rect class="a" x="47.98" y="5.87" width="0.81" height="4.06" rx="0.41" transform="translate(19.76 -31.9) rotate(45)"/><rect class="a" x="47.98" y="34.21" width="0.81" height="4.06" rx="0.41" transform="translate(108.22 27.65) rotate(135)"/><rect class="a" x="19.64" y="34.21" width="0.81" height="4.06" rx="0.41" transform="translate(8.6 76.03) rotate(-135)"/><rect class="a" x="19.64" y="5.87" width="0.81" height="4.06" rx="0.41" transform="translate(0.29 16.49) rotate(-45)"/><path class="b" d="M9.48,48.08A6.75,6.75,0,0,1,8,47.92,9.45,9.45,0,0,1,9.7,29.18a9.14,9.14,0,0,1,3,.5l.22.07.09-.22A11.69,11.69,0,0,1,35.52,34v.25h2.66a6.93,6.93,0,0,1,0,13.85Z"/><path class="c" d="M23.83,22.54A11.46,11.46,0,0,1,35.27,34v.5h2.91a6.68,6.68,0,0,1,0,13.35H9.48a7.09,7.09,0,0,1-1.43-.15,9.2,9.2,0,1,1,4.58-17.77l.44.15.18-.43a11.41,11.41,0,0,1,10.58-7.09m0-.5a12,12,0,0,0-11,7.4,9.58,9.58,0,0,0-3.09-.51A9.7,9.7,0,0,0,8,48.17a7.61,7.61,0,0,0,1.52.16h28.7a7.18,7.18,0,0,0,0-14.35H35.77A12,12,0,0,0,23.83,22Z"/><polygon class="a" points="29.69 34.68 13 50.98 22.4 50.98 17.12 62.29 32.35 47.39 24.78 47.34 29.69 34.68"/></svg>