<svg xmlns="http://www.w3.org/2000/svg" viewBox="0 0 56.28 64.8"><defs><style>.a{fill:#ffd400;}.b{fill:#e2eaed;}.c{fill:#909699;}.d{fill:#62c5ff;}</style></defs><circle class="a" cx="34.22" cy="22.07" r="14.76"/><rect class="a" x="33.81" width="0.81" height="4.06" rx="0.41"/><rect class="a" x="53.85" y="20.04" width="0.81" height="4.06" rx="0.41" transform="translate(76.32 -32.19) rotate(90)"/><rect class="a" x="33.81" y="40.08" width="0.81" height="4.06" rx="0.41" transform="translate(68.43 84.21) rotate(-180)"/><rect class="a" x="13.77" y="20.04" width="0.81" height="4.06" rx="0.41" transform="translate(-7.89 36.24) rotate(-90)"/><rect class="a" x="47.98" y="5.87" width="0.81" height="4.06" rx="0.41" transform="translate(19.76 -31.9) rotate(45)"/><rect class="a" x="47.98" y="34.21" width="0.81" height="4.06" rx="0.41" transform="translate(108.22 27.65) rotate(135)"/><rect class="a" x="19.64" y="34.21" width="0.81" height="4.06" rx="0.41" transform="translate(8.6 76.03) rotate(-135)"/><rect class="a" x="19.64" y="5.87" width="0.81" height="4.06" rx="0.41" transform="translate(0.29 16.49) rotate(-45)"/><path class="b" d="M9.48,48.11A7.51,7.51,0,0,1,8,48a9.45,9.45,0,1,1,4.7-18.25l.22.07.09-.21A11.69,11.69,0,0,1,35.52,34v.25h2.66a6.93,6.93,0,0,1,0,13.85Z"/><path class="c" d="M23.83,22.57A11.45,11.45,0,0,1,35.27,34v.5h2.91a6.68,6.68,0,0,1,0,13.35H9.48a6.46,6.46,0,0,1-1.43-.16A9.2,9.2,0,0,1,9.7,29.45a9,9,0,0,1,2.93.49l.44.15.18-.44a11.42,11.42,0,0,1,10.58-7.08m0-.5a11.94,11.94,0,0,0-11,7.39A9.86,9.86,0,0,0,9.7,29,9.7,9.7,0,0,0,8,48.19a6.94,6.94,0,0,0,1.52.17h28.7a7.18,7.18,0,0,0,0-14.35H35.77A11.94,11.94,0,0,0,23.83,22.07Z"/><path class="d" d="M13.75,55.26l-2.84-1.63L13.75,52a.41.41,0,0,0,.15-.57.43.43,0,0,0-.58-.16L10.49,52.9V49.63a.42.42,0,1,0-.84,0V52.9L6.81,51.26a.42.42,0,0,0-.42.73l2.84,1.64L6.39,55.26a.42.42,0,0,0-.15.58.41.41,0,0,0,.57.15l2.84-1.63v3.27a.42.42,0,0,0,.84,0V54.36L13.32,56a.42.42,0,1,0,.43-.73Z"/><path class="d" d="M24.53,61.62l-3.24-1.87,3.24-1.87a.48.48,0,1,0-.49-.83l-3.23,1.87V55.18a.49.49,0,0,0-1,0v3.74l-3.23-1.87a.48.48,0,1,0-.48.83l3.23,1.87-3.23,1.87a.49.49,0,0,0-.18.66.48.48,0,0,0,.66.17l3.23-1.86v3.73a.49.49,0,0,0,1,0V60.59L24,62.45a.48.48,0,0,0,.66-.17A.48.48,0,0,0,24.53,61.62Z"/><rect class="d" x="27.95" y="59.34" width="1.56" height="5.46" rx="0.78"/><rect class="d" x="27.95" y="41.49" width="1.56" height="14.04" rx="0.78" transform="translate(57.45 97.02) rotate(180)"/><rect class="d" x="34.49" y="53.79" width="1.56" height="5.46" rx="0.78"/><rect class="d" x="34.49" y="35.93" width="1.56" height="14.04" rx="0.78" transform="translate(70.55 85.9) rotate(180)"/></svg>