<svg xmlns="http://www.w3.org/2000/svg" viewBox="0 0 80 80"><defs><style>.a{fill:#fff;}.b{fill:#909699;}</style></defs><path class="a" d="M17.34,49.55a8.38,8.38,0,0,1-1.64-.17A10.53,10.53,0,1,1,20.94,29l.22.07.09-.21a13,13,0,0,1,25.06,5v.25h2.93a7.73,7.73,0,0,1,0,15.45Z"/><path class="b" d="M33.29,21.08A12.79,12.79,0,0,1,46.06,33.85v.5h3.18a7.48,7.48,0,0,1,0,14.95H17.34a8.06,8.06,0,0,1-1.6-.17,10.28,10.28,0,1,1,5.12-19.85l.44.14.18-.43a12.74,12.74,0,0,1,11.81-7.91m0-.5A13.28,13.28,0,0,0,21,28.8a10.78,10.78,0,1,0-5.37,20.82,7.81,7.81,0,0,0,1.69.18h31.9a8,8,0,0,0,0-15.95H46.56A13.27,13.27,0,0,0,33.29,20.58Z"/><path class="a" d="M27.21,59.17a8.78,8.78,0,0,1-1.9-.21,12.18,12.18,0,0,1,2.18-24.17,12,12,0,0,1,3.88.64l.22.07.09-.21a15.06,15.06,0,0,1,29,5.73v.25H64a9,9,0,1,1,0,17.9Z"/><path class="b" d="M45.6,26.21A14.83,14.83,0,0,1,60.41,41v.5H64a8.7,8.7,0,1,1,0,17.4H27.21a8.56,8.56,0,0,1-1.86-.21,11.93,11.93,0,1,1,5.94-23l.45.15.17-.44A14.77,14.77,0,0,1,45.6,26.21m0-.5a15.3,15.3,0,0,0-14.15,9.48,12.59,12.59,0,0,0-4-.65,12.44,12.44,0,0,0-2.23,24.67,9.63,9.63,0,0,0,1.95.21H64A9.2,9.2,0,1,0,64,41H60.91A15.31,15.31,0,0,0,45.6,25.71Z"/></svg>