<svg xmlns="http://www.w3.org/2000/svg" viewBox="0 0 61.39 48.76"><defs><style>.a{fill:#fff;}.b{fill:#909699;}.c{fill:#ffd400;}</style></defs><path class="a" d="M8.22,41A6.15,6.15,0,0,1,7,40.88,8.16,8.16,0,0,1,8.41,24.69a8,8,0,0,1,2.6.43l.22.07.09-.21a10.1,10.1,0,0,1,19.44,3.84v.25H33.1A6,6,0,0,1,33.1,41Z"/><path class="b" d="M20.66,19a9.86,9.86,0,0,1,9.85,9.85v.5H33.1a5.72,5.72,0,0,1,0,11.44H8.22A5.85,5.85,0,0,1,7,40.63,7.91,7.91,0,0,1,8.41,24.94a7.79,7.79,0,0,1,2.52.42l.44.15.18-.44A9.83,9.83,0,0,1,20.66,19m0-.5a10.35,10.35,0,0,0-9.57,6.41A8.41,8.41,0,1,0,6.9,41.12a6.43,6.43,0,0,0,1.32.14H33.1a6.22,6.22,0,0,0,0-12.44H31A10.35,10.35,0,0,0,20.66,18.47Z"/><circle class="c" cx="39.32" cy="22.07" r="14.76"/><rect class="c" x="38.91" width="0.81" height="4.06" rx="0.41"/><rect class="c" x="58.95" y="20.04" width="0.81" height="4.06" rx="0.41" transform="translate(81.43 -37.29) rotate(90)"/><rect class="c" x="38.91" y="40.08" width="0.81" height="4.06" rx="0.41" transform="translate(78.64 84.21) rotate(-180)"/><rect class="c" x="18.88" y="20.04" width="0.81" height="4.06" rx="0.41" transform="translate(-2.79 41.35) rotate(-90)"/><rect class="c" x="53.08" y="5.87" width="0.81" height="4.06" rx="0.41" transform="translate(21.25 -35.51) rotate(45)"/><rect class="c" x="53.08" y="34.21" width="0.81" height="4.06" rx="0.41" transform="translate(116.94 24.04) rotate(135)"/><rect class="c" x="24.74" y="34.21" width="0.81" height="4.06" rx="0.41" transform="translate(17.31 79.64) rotate(-135)"/><rect class="c" x="24.74" y="5.87" width="0.81" height="4.06" rx="0.41" transform="translate(1.78 20.1) rotate(-45)"/><path class="a" d="M15.92,48.51a6.69,6.69,0,0,1-1.47-.16,9.45,9.45,0,1,1,4.7-18.25l.22.08.09-.22A11.69,11.69,0,0,1,42,34.41v.25h2.66a6.93,6.93,0,0,1,0,13.85Z"/><path class="b" d="M30.27,23A11.46,11.46,0,0,1,41.71,34.41v.5h2.91a6.68,6.68,0,0,1,0,13.35H15.92a7.09,7.09,0,0,1-1.43-.15,9.2,9.2,0,1,1,4.58-17.77l.44.15.18-.43A11.4,11.4,0,0,1,30.27,23m0-.5a11.94,11.94,0,0,0-11,7.4,9.58,9.58,0,0,0-3.09-.51A9.7,9.7,0,0,0,14.4,48.6a7.61,7.61,0,0,0,1.52.16h28.7a7.18,7.18,0,0,0,0-14.35H42.21A12,12,0,0,0,30.27,22.47Z"/></svg>