<svg xmlns="http://www.w3.org/2000/svg" viewBox="0 0 61.02 54.96"><defs><style>.a{fill:#ffd400;}.b{fill:#fff;}.c{fill:#909699;}.d{fill:#62c5ff;}</style></defs><path class="a" d="M24.23,0a16.47,16.47,0,0,1,1,7.36A16.63,16.63,0,0,1,0,20,17.79,17.79,0,1,0,24.23,0Z"/><path class="b" d="M22.84,38.27a6.93,6.93,0,0,1,0-13.85H25.5v-.25A11.69,11.69,0,0,1,48,19.72l.09.21.22-.07A9.45,9.45,0,1,1,53,38.11a7.61,7.61,0,0,1-1.48.16Z"/><path class="c" d="M37.19,12.73a11.42,11.42,0,0,1,10.58,7.08l.18.43.44-.14a9,9,0,0,1,2.93-.49A9.2,9.2,0,0,1,53,37.86a6.77,6.77,0,0,1-1.41.16H22.84a6.68,6.68,0,0,1,0-13.35h2.91v-.5A11.45,11.45,0,0,1,37.19,12.73m0-.5A11.94,11.94,0,0,0,25.25,24.17H22.84a7.18,7.18,0,0,0,0,14.35h28.7a6.94,6.94,0,0,0,1.52-.17,9.7,9.7,0,0,0-1.74-19.24,9.86,9.86,0,0,0-3.09.51,11.93,11.93,0,0,0-11-7.39Z"/><rect class="d" x="26.81" y="49.5" width="1.56" height="5.46" rx="0.78"/><rect class="d" x="26.81" y="31.65" width="1.56" height="14.04" rx="0.78" transform="translate(55.17 77.34) rotate(180)"/><rect class="d" x="34.13" y="43.95" width="1.56" height="5.46" rx="0.78"/><rect class="d" x="34.13" y="26.09" width="1.56" height="14.04" rx="0.78" transform="translate(69.83 66.22) rotate(180)"/><rect class="d" x="41.47" y="49.5" width="1.56" height="5.46" rx="0.78"/><rect class="d" x="41.47" y="31.65" width="1.56" height="14.04" rx="0.78" transform="translate(84.49 77.34) rotate(180)"/><rect class="d" x="48.79" y="43.95" width="1.56" height="5.46" rx="0.78"/><rect class="d" x="48.79" y="26.09" width="1.56" height="14.04" rx="0.78" transform="translate(99.15 66.22) rotate(180)"/></svg>