<svg xmlns="http://www.w3.org/2000/svg" viewBox="0 0 80 80"><defs><style>.a{fill:#fff;}.b{fill:#909699;}.c{fill:#62c5ff;}</style></defs><path class="a" d="M23.08,45.79a8.74,8.74,0,0,1-1.89-.2,12.18,12.18,0,1,1,6.06-23.53l.22.07.09-.21a15.06,15.06,0,0,1,29,5.73v.25h3.33a8.95,8.95,0,1,1,0,17.89Z"/><path class="b" d="M41.48,12.84a14.82,14.82,0,0,1,14.8,14.81v.5h3.59a8.7,8.7,0,1,1,0,17.39H23.08a8.54,8.54,0,0,1-1.86-.2,11.93,11.93,0,1,1,6-23l.44.14.18-.43a14.76,14.76,0,0,1,13.69-9.17m0-.5a15.3,15.3,0,0,0-14.15,9.48,12.43,12.43,0,1,0-6.2,24,9,9,0,0,0,1.95.21H59.87a9.2,9.2,0,1,0,0-18.39H56.78a15.3,15.3,0,0,0-15.3-15.31Z"/><rect class="c" x="14.81" y="56.3" width="7" height="2" rx="1" transform="translate(-41.68 52.81) rotate(-68)"/><rect class="c" x="23.83" y="32.18" width="2" height="18" rx="1" transform="translate(32.42 88.65) rotate(-158)"/><rect class="c" x="26.19" y="53.21" width="7" height="2" rx="1" transform="translate(-31.7 61.43) rotate(-68)"/><rect class="c" x="35.2" y="29.09" width="2" height="18" rx="1" transform="translate(55.5 86.97) rotate(-158)"/><rect class="c" x="32.24" y="63.34" width="7" height="2" rx="1" transform="translate(-37.31 73.37) rotate(-68)"/><rect class="c" x="41.25" y="39.22" width="2" height="18" rx="1" transform="translate(63.36 108.75) rotate(-158)"/><rect class="c" x="43.61" y="60.25" width="7" height="2" rx="1" transform="translate(-27.33 81.99) rotate(-68)"/><rect class="c" x="52.63" y="36.13" width="2" height="18" rx="1" transform="translate(86.45 107.06) rotate(-158)"/></svg>