<svg xmlns="http://www.w3.org/2000/svg" viewBox="0 0 61.02 52.48"><defs><style>.a{fill:#ffd400;}.b{fill:#fff;}.c{fill:#909699;}</style></defs><path class="a" d="M24.23,0a16.47,16.47,0,0,1,1,7.36A16.63,16.63,0,0,1,0,20,17.79,17.79,0,1,0,24.23,0Z"/><path class="b" d="M22.84,38.27a6.93,6.93,0,0,1,0-13.85H25.5v-.25A11.69,11.69,0,0,1,48,19.72l.09.21.22-.07A9.45,9.45,0,1,1,53,38.11a7.35,7.35,0,0,1-1.47.16Z"/><path class="c" d="M37.19,12.73a11.42,11.42,0,0,1,10.58,7.08l.18.43.44-.14a9,9,0,0,1,2.93-.49A9.2,9.2,0,0,1,53,37.86a6.77,6.77,0,0,1-1.41.16H22.84a6.68,6.68,0,0,1,0-13.35h2.91v-.5A11.45,11.45,0,0,1,37.19,12.73m0-.5A11.94,11.94,0,0,0,25.25,24.17H22.84a7.18,7.18,0,0,0,0,14.35h28.7a6.94,6.94,0,0,0,1.52-.17,9.7,9.7,0,0,0-1.74-19.24,9.86,9.86,0,0,0-3.09.51,11.93,11.93,0,0,0-11-7.39Z"/><polygon class="a" points="45.52 24.86 28.83 41.17 38.23 41.17 32.95 52.48 48.18 37.57 40.61 37.52 45.52 24.86"/></svg>