<svg xmlns="http://www.w3.org/2000/svg" viewBox="0 0 56.28 64.67"><defs><style>.a{fill:#ffd400;}.b{fill:#fff;}.c{fill:#909699;}.d{fill:#62c5ff;}</style></defs><circle class="a" cx="34.22" cy="22.07" r="14.76"/><rect class="a" x="33.81" width="0.81" height="4.06" rx="0.41"/><rect class="a" x="53.85" y="20.04" width="0.81" height="4.06" rx="0.41" transform="translate(76.32 -32.19) rotate(90)"/><rect class="a" x="33.81" y="40.08" width="0.81" height="4.06" rx="0.41" transform="translate(68.43 84.21) rotate(-180)"/><rect class="a" x="13.77" y="20.04" width="0.81" height="4.06" rx="0.41" transform="translate(-7.89 36.24) rotate(-90)"/><rect class="a" x="47.98" y="5.87" width="0.81" height="4.06" rx="0.41" transform="translate(19.76 -31.9) rotate(45)"/><rect class="a" x="47.98" y="34.21" width="0.81" height="4.06" rx="0.41" transform="translate(108.22 27.65) rotate(135)"/><rect class="a" x="19.64" y="34.21" width="0.81" height="4.06" rx="0.41" transform="translate(8.6 76.03) rotate(-135)"/><rect class="a" x="19.64" y="5.87" width="0.81" height="4.06" rx="0.41" transform="translate(0.29 16.49) rotate(-45)"/><path class="b" d="M9.45,48A7.31,7.31,0,0,1,8,47.87a9.42,9.42,0,1,1,4.68-18.19l.22.07.09-.22A11.66,11.66,0,0,1,35.41,34v.25h2.65a6.9,6.9,0,0,1,0,13.8Z"/><path class="c" d="M23.75,22.57A11.42,11.42,0,0,1,35.16,34v.5h2.9a6.65,6.65,0,0,1,0,13.3H9.45A7,7,0,0,1,8,47.62a9.17,9.17,0,1,1,4.56-17.71l.44.15.18-.43a11.37,11.37,0,0,1,10.54-7.06m0-.5a11.89,11.89,0,0,0-11,7.37,9.52,9.52,0,0,0-3.08-.51A9.67,9.67,0,0,0,7.94,48.11a6.79,6.79,0,0,0,1.51.16H38.06a7.15,7.15,0,0,0,0-14.3h-2.4a11.9,11.9,0,0,0-11.91-11.9Z"/><path class="d" d="M16.05,55.77l-2.83-1.63,2.83-1.63a.41.41,0,0,0,.15-.57.43.43,0,0,0-.57-.16L12.8,53.41V50.15a.42.42,0,1,0-.84,0v3.26L9.14,51.78a.43.43,0,0,0-.58.16.41.41,0,0,0,.16.57l2.82,1.63L8.72,55.77a.43.43,0,0,0-.16.58.42.42,0,0,0,.58.15L12,54.87v3.26a.42.42,0,1,0,.84,0V54.87l2.83,1.63a.41.41,0,0,0,.57-.15A.42.42,0,0,0,16.05,55.77Z"/><path class="d" d="M37.54,55.77l-2.83-1.63,2.83-1.63a.41.41,0,0,0,.15-.57.43.43,0,0,0-.57-.16l-2.83,1.63V50.15a.42.42,0,1,0-.84,0v3.26l-2.83-1.63a.43.43,0,0,0-.57.16.41.41,0,0,0,.15.57L33,54.14,30.2,55.77a.42.42,0,0,0-.15.58.41.41,0,0,0,.57.15l2.83-1.63v3.26a.42.42,0,1,0,.84,0V54.87l2.83,1.63a.41.41,0,0,0,.57-.15A.42.42,0,0,0,37.54,55.77Z"/><path class="d" d="M26.79,61.5l-3.23-1.87,3.23-1.86a.48.48,0,1,0-.48-.83L23.09,58.8V55.07a.49.49,0,0,0-.48-.48.48.48,0,0,0-.48.48V58.8L18.9,56.94a.48.48,0,1,0-.48.83l3.23,1.86L18.42,61.5a.48.48,0,0,0-.18.65.49.49,0,0,0,.66.18l3.23-1.87v3.73a.48.48,0,0,0,.48.48.49.49,0,0,0,.48-.48V60.46l3.22,1.87a.49.49,0,0,0,.66-.18A.48.48,0,0,0,26.79,61.5Z"/></svg>