<svg xmlns="http://www.w3.org/2000/svg" viewBox="0 0 80 80"><defs><style>.a{fill:#e2eaed;}.b{fill:#909699;}.c{fill:#ffd400;}</style></defs><path class="a" d="M23.08,47.65a9.34,9.34,0,0,1-1.89-.2,12.18,12.18,0,0,1,2.18-24.17,12,12,0,0,1,3.87.64l.23.07.09-.22a15.05,15.05,0,0,1,29,5.74v.25h3.34a8.95,8.95,0,1,1,0,17.89Z"/><path class="b" d="M41.48,14.7a14.82,14.82,0,0,1,14.8,14.81V30h3.59a8.7,8.7,0,1,1,0,17.39H23.08a8.54,8.54,0,0,1-1.86-.2,11.93,11.93,0,0,1,2.15-23.67,12.14,12.14,0,0,1,3.8.62l.44.15.18-.43A14.76,14.76,0,0,1,41.48,14.7m0-.5a15.3,15.3,0,0,0-14.15,9.48,12.43,12.43,0,1,0-6.2,24,9,9,0,0,0,1.95.21H59.87a9.2,9.2,0,1,0,0-18.39H56.78A15.3,15.3,0,0,0,41.48,14.2Z"/><polygon class="c" points="48.99 30.39 27.6 51.3 39.64 51.3 32.87 65.8 52.4 46.69 42.7 46.63 48.99 30.39"/></svg>