<svg xmlns="http://www.w3.org/2000/svg" viewBox="0 0 80 80"><defs><style>.a{fill:#fff;}.b{fill:#909699;}.c{fill:#62c5ff;}</style></defs><path class="a" d="M23.08,46.06a8.76,8.76,0,0,1-1.89-.21,12.18,12.18,0,0,1,2.18-24.17,12.37,12.37,0,0,1,3.88.64l.22.08.09-.22a15.06,15.06,0,0,1,29,5.73v.25h3.33a9,9,0,0,1,0,17.9Z"/><path class="b" d="M41.48,13.11a14.82,14.82,0,0,1,14.8,14.8v.5h3.59a8.7,8.7,0,0,1,0,17.4H23.08a9.2,9.2,0,0,1-1.86-.2,11.94,11.94,0,1,1,6-23l.44.15.18-.43a14.76,14.76,0,0,1,13.69-9.17m0-.5a15.29,15.29,0,0,0-14.15,9.48,12.43,12.43,0,1,0-6.2,24,9.63,9.63,0,0,0,1.95.21H59.87a9.2,9.2,0,0,0,0-18.4H56.78a15.3,15.3,0,0,0-15.3-15.3Z"/><path class="c" d="M28.55,55.16l-3.63-2.09L28.55,51A.54.54,0,1,0,28,50l-3.63,2.1v-4.2a.55.55,0,0,0-.54-.54.54.54,0,0,0-.54.54v4.2L19.66,50a.54.54,0,0,0-.54.94l3.64,2.1-3.64,2.09a.54.54,0,0,0,.54.94L23.3,54v4.2a.54.54,0,0,0,.54.54.54.54,0,0,0,.54-.54V54L28,56.1a.54.54,0,1,0,.54-.94Z"/><path class="c" d="M42.37,63.31l-4.15-2.39,4.15-2.4a.62.62,0,1,0-.62-1.07l-4.15,2.4V55.06a.62.62,0,1,0-1.23,0v4.79l-4.15-2.4a.62.62,0,0,0-.62,1.07l4.15,2.4L31.6,63.31a.62.62,0,0,0,.62,1.07L36.37,62v4.79a.62.62,0,0,0,1.23,0V62l4.15,2.39a.62.62,0,1,0,.62-1.07Z"/><rect class="c" x="46.76" y="60.39" width="2" height="7" rx="1"/><rect class="c" x="46.76" y="37.5" width="2" height="18" rx="1" transform="translate(95.51 93.01) rotate(180)"/><rect class="c" x="55.15" y="53.27" width="2" height="7" rx="1"/><rect class="c" x="55.15" y="30.38" width="2" height="18" rx="1" transform="translate(112.3 78.76) rotate(180)"/></svg>