<?xml version="1.0" encoding="utf-8"?>
<!-- Generator: Adobe Illustrator 16.0.0, SVG Export Plug-In . SVG Version: 6.00 Build 0)  -->
<!DOCTYPE svg PUBLIC "-//W3C//DTD SVG 1.1//EN" "http://www.w3.org/Graphics/SVG/1.1/DTD/svg11.dtd">
<svg version="1.1" xmlns="http://www.w3.org/2000/svg" xmlns:xlink="http://www.w3.org/1999/xlink" x="0px" y="0px"
	 width="17.929px" height="26.939px" viewBox="0 0 17.929 26.939" enable-background="new 0 0 17.929 26.939" xml:space="preserve">
<g id="Layer_1" display="none">
	<path display="inline" fill="#323232" d="M26.708,15.554L8.964-1.903L-8.78,15.554h4.781v12.938h8.354v-9.662
		c0-0.73,0.677-1.32,1.511-1.32h6.197c0.834,0,1.511,0.59,1.511,1.32v9.662h8.353V15.554H26.708z"/>
</g>
<g id="Layer_2" display="none">
	<g display="inline">
		<path fill="#323232" d="M8.963,23.915c-1.431,0-2.186-1.111-2.186-1.111c-0.476-0.701-0.174-1.229,0.674-1.168h3.026
			c0.847-0.061,1.149,0.467,0.671,1.168C11.149,22.804,10.395,23.915,8.963,23.915z"/>
		<path fill="#323232" d="M21.459,9.721c0-0.424-0.607-0.689-0.937-0.877c-1.194-0.681-1.172-2.626-1.521-3.698
			c-0.792-2.436-2.825-4.583-5.769-5.665v6.805c0,0.614-0.498,1.112-1.111,1.112S11.01,6.9,11.01,6.286v-7.877
			c-0.654-0.103-1.329-0.172-2.047-0.172c-0.717,0-1.393,0.069-2.046,0.172v7.877c0,0.614-0.497,1.112-1.112,1.112
			c-0.612,0-1.109-0.498-1.109-1.112v-6.805C1.751,0.563-0.283,2.71-1.074,5.146C-1.423,6.218-1.4,8.164-2.594,8.844
			c-0.331,0.188-0.938,0.453-0.938,0.877l-0.311,2.797c0,0.241,0.168,0.761,0.715,0.809c0.379,0.012,0.705,0.086,1.037,0.199
			c0.281,7.336,2.165,14.825,11.055,14.825c8.891,0,10.774-7.488,11.055-14.825c0.332-0.113,0.659-0.188,1.039-0.199
			c0.546-0.048,0.715-0.567,0.715-0.809L21.459,9.721z M8.963,26.126c-5.625,0-8.277-3.521-8.777-11.695
			c1.57,0.535,4.046,1.063,8.777,1.063c4.732,0,7.209-0.527,8.777-1.063C17.243,22.604,14.589,26.126,8.963,26.126z"/>
	</g>
</g>
<g id="Layer_3" display="none">
	<g display="inline">
		
			<path fill="none" stroke="#323232" stroke-width="2.5" stroke-linecap="round" stroke-linejoin="round" stroke-miterlimit="10" d="
			M5.259,23.753c0,2.184,1.769,3.953,3.951,3.953c2.184,0,3.953-1.77,3.953-3.953"/>
		
			<path fill="none" stroke="#323232" stroke-width="2.5" stroke-linecap="round" stroke-linejoin="round" stroke-miterlimit="10" d="
			M20.201,17.478L20.201,17.478l-0.219-8.066c0-5.948-4.822-10.771-10.771-10.771c-5.947,0-10.77,4.822-10.77,10.771l-0.208,8.066
			c-1.733,0-3.139,1.404-3.139,3.139c0,1.732,1.405,3.137,3.139,3.137h21.968c1.732,0,3.139-1.404,3.139-3.137
			C23.339,18.882,21.933,17.478,20.201,17.478z"/>
		
			<path fill="none" stroke="#323232" stroke-width="2.5" stroke-linecap="round" stroke-linejoin="round" stroke-miterlimit="10" d="
			M8.582,3.186c-3.09,0-5.597,2.506-5.597,5.596"/>
	</g>
</g>
<g id="Layer_4" display="none">
	<g display="inline">
		<path fill="#323232" stroke="#323232" stroke-miterlimit="10" d="M8.328,18.169c-5.393,0-9.781-4.387-9.781-9.779
			c0-5.395,4.389-9.782,9.781-9.782c5.394,0,9.781,4.388,9.781,9.782C18.109,13.782,13.722,18.169,8.328,18.169z M8.328,0.551
			c-4.323,0-7.839,3.516-7.839,7.839c0,4.321,3.516,7.841,7.839,7.841c4.326,0,7.839-3.52,7.839-7.841
			C16.167,4.066,12.654,0.551,8.328,0.551z"/>
		<path fill="#323232" stroke="#323232" stroke-miterlimit="10" d="M8.945,18.173c6.902,0,12.714,5.974,13.683,9.808h1.984
			c-0.889-4.923-7.695-11.748-15.667-11.748c-7.953,0-14.743,6.825-15.63,11.748h1.982C-3.732,24.146,2.062,18.173,8.945,18.173z"/>
	</g>
</g>
<g id="Layer_5" display="none">
	<g display="inline">
		<defs>
			<rect id="SVGID_1_" x="-3.036" y="1.294" width="24" height="24"/>
		</defs>
		<clipPath id="SVGID_2_">
			<use xlink:href="#SVGID_1_"  overflow="visible"/>
		</clipPath>
		
			<line clip-path="url(#SVGID_2_)" fill="none" stroke="#2C2B2A" stroke-width="2" stroke-miterlimit="10" x1="18.964" y1="13.294" x2="1.964" y2="13.294"/>
		<polyline clip-path="url(#SVGID_2_)" fill="none" stroke="#2C2B2A" stroke-width="2" stroke-miterlimit="10" points="
			7.964,20.294 0.964,13.294 7.964,6.294 		"/>
	</g>
</g>
<g id="Layer_6" display="none">
	<g display="inline">
		<g>
			<g>
				<polygon fill="#484848" points="21.088,25.394 -3.161,25.394 -3.161,17.331 -0.947,17.331 -0.947,23.181 18.875,23.181 
					18.875,17.331 21.088,17.331 				"/>
			</g>
		</g>
		<g>
			<g>
				<rect x="7.857" y="1.195" fill="#484848" width="2.214" height="17.037"/>
			</g>
			<g>
				<polygon fill="#484848" points="8.963,20.431 0.651,12.118 2.215,10.552 8.963,17.3 15.711,10.552 17.277,12.118 				"/>
			</g>
		</g>
	</g>
</g>
<g id="Layer_7" display="none">
	<path id="_x30_3" display="inline" fill="#4A4A4A" d="M18.836,23.066l-4.27-4.269c1.543-1.845,2.386-4.147,2.386-6.581
		c0-2.746-1.069-5.326-3.011-7.268s-4.521-3.01-7.267-3.01S1.35,3.008-0.591,4.949s-3.01,4.521-3.01,7.268
		c0,2.745,1.068,5.326,3.01,7.267c1.94,1.941,4.521,3.011,7.266,3.011c2.435,0,4.738-0.843,6.582-2.387l4.27,4.27
		c0.182,0.182,0.418,0.271,0.656,0.271c0.236,0,0.473-0.09,0.654-0.271C19.198,24.016,19.198,23.429,18.836,23.066z M0.718,18.174
		c-1.591-1.592-2.467-3.707-2.467-5.957s0.876-4.366,2.468-5.957C2.31,4.668,4.425,3.792,6.675,3.792
		c2.251,0,4.366,0.876,5.957,2.468c1.591,1.591,2.468,3.707,2.468,5.957s-0.877,4.365-2.469,5.956
		c-1.59,1.592-3.706,2.468-5.957,2.468C4.424,20.641,2.309,19.765,0.718,18.174z"/>
</g>
<g id="Layer_8" display="none">
</g>
<g id="Layer_9" display="none">
	<path display="inline" fill="none" stroke="#515151" stroke-width="1.5" stroke-miterlimit="10" d="M8.949,5.938
		c0.002,0,0.005,0.001,0.006,0.001c0.003,0,0.005-0.001,0.007-0.001c2.138-0.003,3.873,1.728,3.876,3.866
		c0.002,2.139-1.728,3.875-3.863,3.877c-0.007,0-0.013,0-0.02,0c-0.005,0-0.012,0-0.017,0c-2.137-0.002-3.868-1.738-3.864-3.877
		S6.812,5.935,8.949,5.938z"/>
	<path display="inline" fill="none" stroke="#515151" stroke-width="1.5" stroke-miterlimit="10" d="M8.964,0.751
		c5.004,0,9.059,4.056,9.059,9.059c0.004,2.164-0.318,3.664-1.547,5.632c-1.23,1.967-7.512,10.396-7.512,10.396
		s-6.281-8.429-7.512-10.396c-1.229-1.968-1.551-3.468-1.547-5.632C-0.094,4.807,3.96,0.751,8.964,0.751z"/>
</g>
<g id="Layer_10" display="none">
	<g display="inline">
		<path fill="#3A444F" d="M22.749,10.49L19.65,9.98c-0.203-0.654-0.466-1.281-0.78-1.877l1.828-2.578
			c0.244-0.346,0.205-0.818-0.096-1.117L17.85,1.654c-0.3-0.299-0.771-0.338-1.117-0.094l-2.578,1.828
			c-0.597-0.314-1.223-0.576-1.877-0.781l-0.51-3.1c-0.069-0.42-0.432-0.727-0.858-0.727H7.017c-0.426,0-0.788,0.307-0.857,0.727
			l-0.511,3.1C4.997,2.813,4.37,3.074,3.774,3.389L1.196,1.561C0.849,1.314,0.377,1.355,0.079,1.654l-2.754,2.752
			C-2.974,4.707-3.014,5.18-2.769,5.523l1.828,2.578c-0.313,0.592-0.573,1.213-0.776,1.859l-3.108,0.529
			c-0.418,0.072-0.724,0.434-0.724,0.857v3.893c0,0.424,0.306,0.785,0.724,0.855l3.109,0.531c0.203,0.652,0.469,1.279,0.784,1.875
			l-1.835,2.555c-0.248,0.348-0.209,0.82,0.092,1.121l2.754,2.754c0.168,0.168,0.391,0.256,0.614,0.256
			c0.177,0,0.354-0.055,0.507-0.164l2.557-1.836c0.596,0.316,1.222,0.58,1.875,0.783l0.529,3.111
			c0.07,0.418,0.433,0.725,0.856,0.725h3.893c0.425,0,0.786-0.307,0.858-0.725l0.528-3.111c0.653-0.203,1.28-0.467,1.876-0.783
			l2.556,1.836c0.151,0.109,0.329,0.164,0.506,0.164c0.224,0,0.447-0.088,0.615-0.256l2.753-2.754
			c0.302-0.301,0.34-0.773,0.092-1.121l-1.834-2.555c0.318-0.602,0.585-1.234,0.79-1.896l3.099-0.51
			c0.42-0.068,0.729-0.432,0.729-0.855v-3.893C23.477,10.922,23.168,10.559,22.749,10.49z M21.739,14.502l-1.689,0.277l-0.909,0.15
			l-0.901,0.146c-0.121,0.627-0.301,1.232-0.54,1.809c-0.006,0.014-0.01,0.029-0.016,0.045c-0.245,0.586-0.547,1.141-0.899,1.66
			l0.533,0.742l0.533,0.744l1.001,1.395l-1.709,1.709l-1.396-1l-0.743-0.533l-0.743-0.535c-0.51,0.348-1.055,0.646-1.629,0.889
			c-0.025,0.01-0.051,0.018-0.076,0.027c-0.568,0.234-1.165,0.416-1.781,0.535l-0.154,0.902l-0.154,0.91l-0.289,1.693H7.75
			l-0.288-1.693l-0.155-0.91l-0.152-0.902c-0.617-0.119-1.213-0.301-1.781-0.535C5.348,22.018,5.321,22.01,5.295,22
			c-0.574-0.242-1.119-0.541-1.629-0.889l-0.742,0.533L2.18,22.18l-1.395,1l-1.71-1.709l1.001-1.395l0.534-0.744l0.533-0.742
			c-0.347-0.51-0.646-1.055-0.888-1.629c-0.011-0.023-0.018-0.051-0.028-0.076c-0.235-0.568-0.415-1.164-0.536-1.783l-0.901-0.152
			l-0.911-0.156l-1.69-0.289V12.08l1.69-0.287l0.911-0.154l0.901-0.154c0.119-0.605,0.295-1.191,0.523-1.75
			C0.231,9.697,0.241,9.66,0.256,9.627c0.239-0.568,0.531-1.105,0.873-1.611L0.599,7.27l-0.53-0.748l-0.996-1.404l1.715-1.715
			l1.403,0.996L2.94,4.93l0.748,0.529C4.2,5.113,4.75,4.818,5.327,4.574c0.025-0.01,0.053-0.018,0.079-0.027
			c0.566-0.232,1.159-0.41,1.773-0.527l0.149-0.902l0.148-0.908L7.755,0.52h2.417l0.277,1.689l0.15,0.908l0.148,0.902
			c0.615,0.117,1.207,0.295,1.773,0.527c0.026,0.01,0.054,0.018,0.078,0.027c0.578,0.242,1.127,0.539,1.64,0.885l0.748-0.529
			l0.749-0.531l1.403-0.996l1.715,1.717L17.86,6.521L17.329,7.27l-0.529,0.748c0.346,0.512,0.643,1.063,0.884,1.639
			c0.011,0.027,0.019,0.053,0.028,0.08c0.232,0.564,0.409,1.158,0.527,1.771l0.901,0.15l0.909,0.148l1.689,0.277V14.502z"/>
		<path fill="#3A444F" d="M8.964,8.146c-2.839,0-5.147,2.309-5.147,5.146s2.309,5.146,5.147,5.146c2.837,0,5.146-2.309,5.146-5.146
			S11.801,8.146,8.964,8.146z M8.964,16.701c-1.88,0-3.409-1.529-3.409-3.408s1.529-3.408,3.409-3.408
			c1.878,0,3.407,1.529,3.407,3.408S10.842,16.701,8.964,16.701z"/>
	</g>
</g>
<g id="Layer_11" display="none">
	<path display="inline" fill="#4A4A4A" d="M24.104,9.744c-0.201-0.617-0.857-1.352-2.842-1.352h-7.74l-2.393-7.361
		c-0.611-1.89-1.516-2.285-2.164-2.285c-0.65,0-1.553,0.396-2.166,2.285L4.407,8.393H-3.33c-1.988,0-2.645,0.734-2.846,1.354
		c-0.199,0.615-0.104,1.598,1.506,2.766l6.262,4.547L-0.8,24.418c-0.4,1.232-0.377,2.168,0.068,2.783
		c0.303,0.414,0.766,0.641,1.307,0.641c0.613,0,1.33-0.295,2.129-0.877l6.262-4.547l6.26,4.547c0.801,0.582,1.516,0.877,2.129,0.877
		l0,0c0.543,0,1.006-0.227,1.307-0.641c0.447-0.615,0.471-1.551,0.068-2.783l-2.391-7.359l6.262-4.547
		C24.206,11.344,24.305,10.361,24.104,9.744z M21.543,11.057l-6.789,4.932c-0.314,0.23-0.447,0.637-0.328,1.004l2.594,7.982
		c0.172,0.527,0.205,0.865,0.197,1.047c-0.16-0.043-0.463-0.166-0.936-0.51L9.495,20.58c-0.129-0.094-0.281-0.152-0.439-0.166
		c-0.225-0.023-0.441,0.037-0.621,0.166l-6.787,4.932c-0.471,0.342-0.773,0.465-0.934,0.508c-0.008-0.18,0.023-0.518,0.195-1.045
		L3.5,16.996c0.043-0.133,0.055-0.271,0.035-0.406c-0.033-0.24-0.162-0.457-0.361-0.602l-6.787-4.932
		c-0.451-0.326-0.676-0.582-0.775-0.73c0.17-0.064,0.5-0.139,1.059-0.139h8.389c0.178,0,0.352-0.053,0.498-0.15
		C5.725,9.926,5.852,9.76,5.915,9.566L7.209,5.58c0.004-0.014,0.012-0.035,0.018-0.049l1.281-3.945
		c0.172-0.529,0.346-0.82,0.457-0.963C9.077,0.766,9.25,1.057,9.42,1.586l2.594,7.979c0.092,0.287,0.32,0.506,0.605,0.588
		c0.021,0.006,0.045,0.012,0.068,0.018c0.061,0.012,0.125,0.018,0.188,0.018h8.387c0.555,0,0.887,0.074,1.055,0.137
		C22.219,10.475,21.993,10.73,21.543,11.057z"/>
</g>
<g id="Layer_12" display="none">
	<g display="inline">
		<g>
			<path fill="#FFFFFF" d="M-4.807,2.277c-1.438,0-2.607,1.17-2.607,2.607v17.051c0,1.439,1.17,2.607,2.607,2.607h27.545
				c1.438,0,2.605-1.168,2.605-2.607V4.885c0-1.438-1.168-2.607-2.605-2.607H-4.807z"/>
		</g>
		<g>
			<g>
				<g>
					<g>
						<path fill="#4A4A4A" d="M22.738,25.768H-4.807c-2.5,0-4.535-2.035-4.535-4.537V5.355c0-2.502,2.035-4.535,4.535-4.535h27.545
							c2.5,0,4.533,2.033,4.533,4.535V21.23C27.271,23.732,25.238,25.768,22.738,25.768z M-4.807,2.748
							c-1.438,0-2.607,1.168-2.607,2.607V21.23c0,1.439,1.17,2.609,2.607,2.609h27.545c1.438,0,2.605-1.17,2.605-2.609V5.355
							c0-1.439-1.168-2.607-2.605-2.607H-4.807z"/>
					</g>
				</g>
			</g>
			<g>
				<g>
					<g>
						<rect x="-8.463" y="5.625" fill="#4A4A4A" width="34.771" height="5.977"/>
					</g>
				</g>
			</g>
			<g>
				<g>
					<path fill="#4A4A4A" d="M9.857,16.766c0,0.492-0.404,0.898-0.898,0.898H-4.571c-0.494,0-0.896-0.406-0.896-0.898v-2.225
						c0-0.494,0.402-0.9,0.896-0.9H8.958c0.494,0,0.898,0.406,0.898,0.9V16.766z"/>
				</g>
			</g>
		</g>
	</g>
</g>
<g id="Layer_13" display="none">
	<g display="inline">
		<g>
			<path fill="#4A4A4A" d="M16.986,27.525H0.941c-0.824,0-1.496-0.672-1.496-1.498V8.215c0-0.412,0.336-0.748,0.748-0.748
				c0.414,0,0.748,0.336,0.748,0.748v17.813h16.045V8.215c0-0.412,0.336-0.748,0.748-0.748c0.414,0,0.748,0.336,0.748,0.748v17.813
				C18.482,26.854,17.812,27.525,16.986,27.525z"/>
		</g>
		<g>
			<path fill="#4A4A4A" d="M18.693,8.139H-0.764c-1.139,0-2.063-1.102-2.063-2.457c0-1.354,0.924-2.455,2.063-2.455h19.457
				c1.137,0,2.063,1.102,2.063,2.455C20.755,7.037,19.83,8.139,18.693,8.139z M-0.764,4.725c-0.268,0-0.566,0.408-0.566,0.957
				s0.299,0.959,0.566,0.959h19.457c0.268,0,0.566-0.41,0.566-0.959s-0.299-0.957-0.566-0.957H-0.764z"/>
		</g>
		<g>
			<path fill="#4A4A4A" d="M10.517,4.725c-0.412,0-0.748-0.336-0.748-0.75V1.363c0-0.443-0.361-0.807-0.805-0.807
				c-0.445,0-0.807,0.363-0.807,0.807v2.611c0,0.414-0.334,0.75-0.748,0.75c-0.412,0-0.748-0.336-0.748-0.75V1.363
				c0-1.27,1.033-2.301,2.303-2.301s2.303,1.031,2.303,2.301v2.611C11.267,4.389,10.931,4.725,10.517,4.725z"/>
		</g>
		<g>
			<path fill="#4A4A4A" d="M4.291,27.525c-0.412,0-0.748-0.336-0.748-0.75V7.389c0-0.412,0.336-0.748,0.748-0.748
				s0.748,0.336,0.748,0.748v19.387C5.039,27.189,4.703,27.525,4.291,27.525z"/>
		</g>
		<g>
			<path fill="#4A4A4A" d="M13.845,27.525c-0.412,0-0.748-0.336-0.748-0.75V7.389c0-0.412,0.336-0.748,0.748-0.748
				c0.414,0,0.748,0.336,0.748,0.748v19.387C14.593,27.189,14.259,27.525,13.845,27.525z"/>
		</g>
		<g>
			<path fill="#4A4A4A" d="M9.068,27.525c-0.412,0-0.748-0.336-0.748-0.75V7.389c0-0.412,0.336-0.748,0.748-0.748
				c0.414,0,0.748,0.336,0.748,0.748v19.387C9.816,27.189,9.482,27.525,9.068,27.525z"/>
		</g>
	</g>
</g>
<g id="Layer_14" display="none">
	<g display="inline">
		<g>
			<path fill="#4A4A4A" d="M18.353,30.521H-0.424c-1.191,0-2.159-0.968-2.159-2.159V-1.773c0-1.191,0.968-2.16,2.159-2.16h18.777
				c1.191,0,2.159,0.969,2.159,2.16v30.136C20.512,29.554,19.544,30.521,18.353,30.521z M-0.424-2.082
				c-0.168,0-0.309,0.141-0.309,0.309v30.136c0,0.168,0.141,0.31,0.309,0.31h18.777c0.168,0,0.309-0.142,0.309-0.31V-1.773
				c0-0.168-0.141-0.309-0.309-0.309H-0.424z"/>
		</g>
		<g>
			<path fill="#4A4A4A" d="M19.587,3.114H-1.659c-0.512,0-0.925-0.414-0.925-0.925c0-0.512,0.413-0.925,0.925-0.925h21.246
				c0.512,0,0.925,0.413,0.925,0.925C20.512,2.7,20.099,3.114,19.587,3.114z"/>
		</g>
		<g>
			<path fill="#4A4A4A" d="M19.587,25.281H-1.659c-0.512,0-0.925-0.414-0.925-0.926c0-0.51,0.413-0.924,0.925-0.924h21.246
				c0.512,0,0.925,0.414,0.925,0.924C20.512,24.867,20.099,25.281,19.587,25.281z"/>
		</g>
		<path fill="#4A4A4A" d="M11.213-0.4c0,0.291-0.235,0.526-0.526,0.526H7.242c-0.29,0-0.525-0.235-0.525-0.526l0,0
			c0-0.29,0.235-0.526,0.525-0.526h3.445C10.978-0.927,11.213-0.69,11.213-0.4L11.213-0.4z"/>
		<circle fill="#4A4A4A" cx="8.964" cy="27.055" r="1.047"/>
	</g>
</g>
<g id="Layer_15">
	<path fill="#4A4A4A" d="M3.33,10.379V6.537c0-3.107,2.527-5.636,5.635-5.636s5.635,2.528,5.635,5.636v3.842h0.626
		c0.221,0,0.43,0.045,0.627,0.115V6.537c0-3.798-3.089-6.888-6.888-6.888s-6.887,3.09-6.887,6.888v3.957
		c0.195-0.07,0.404-0.115,0.625-0.115H3.33z"/>
	<g>
		<path fill="none" d="M1.378,17.627c0,4.251,3.297,7.808,7.352,7.93c2.084,0.062,4.031-0.697,5.518-2.137
			c1.483-1.442,2.303-3.375,2.303-5.445v-2.568H1.378V17.627z"/>
		<path fill="none" d="M8.964,0C5.542,0,2.757,2.783,2.757,6.207v4.16H15.17v-4.16C15.17,2.783,12.387,0,8.964,0z"/>
		<path fill="#4A4A4A" d="M15.861,10.367h-0.69H2.757H2.069H0v2.068v5.191c0,4.989,3.898,9.164,8.69,9.309
			c0.093,0.003,0.186,0.004,0.278,0.004c2.345,0,4.552-0.893,6.237-2.529c1.757-1.703,2.724-3.989,2.724-6.436v-5.539v-2.068H15.861
			z M16.55,12.436v2.971v2.568c0,2.07-0.819,4.003-2.303,5.445c-1.486,1.439-3.434,2.198-5.518,2.137
			c-4.055-0.122-7.352-3.679-7.352-7.93v-2.221v-2.971v-0.703H16.55V12.436z"/>
	</g>
	<path fill="#4A4A4A" d="M9.736,18.593c0,0.426-0.345,0.771-0.771,0.771l0,0c-0.426,0-0.771-0.346-0.771-0.771v-0.909
		c0-0.426,0.346-0.771,0.771-0.771l0,0c0.427,0,0.771,0.346,0.771,0.771V18.593z"/>
</g>
</svg>
