<?xml version="1.0" encoding="utf-8"?>
<!-- Generator: Adobe Illustrator 16.0.0, SVG Export Plug-In . SVG Version: 6.00 Build 0)  -->
<!DOCTYPE svg PUBLIC "-//W3C//DTD SVG 1.1//EN" "http://www.w3.org/Graphics/SVG/1.1/DTD/svg11.dtd">
<svg version="1.1" xmlns="http://www.w3.org/2000/svg" xmlns:xlink="http://www.w3.org/1999/xlink" x="0px" y="0px"
	 width="32.496px" height="30.374px" viewBox="0 0 32.496 30.374" enable-background="new 0 0 32.496 30.374" xml:space="preserve">
<g id="Layer_1" display="none">
	<path display="inline" fill="#323232" d="M33.992,17.446L16.248-0.011L-1.497,17.446h4.781v12.938h8.354v-9.662
		c0-0.73,0.677-1.32,1.511-1.32h6.197c0.834,0,1.511,0.59,1.511,1.32v9.662h8.353V17.446H33.992z"/>
</g>
<g id="Layer_2" display="none">
	<g display="inline">
		<path fill="#323232" d="M16.247,25.807c-1.431,0-2.186-1.111-2.186-1.111c-0.476-0.701-0.174-1.229,0.674-1.168h3.026
			c0.847-0.061,1.149,0.467,0.671,1.168C18.432,24.696,17.678,25.807,16.247,25.807z"/>
		<path fill="#323232" d="M28.743,11.613c0-0.424-0.607-0.689-0.937-0.877c-1.194-0.681-1.172-2.626-1.521-3.698
			c-0.792-2.436-2.825-4.583-5.769-5.665v6.805c0,0.614-0.498,1.112-1.111,1.112s-1.111-0.498-1.111-1.112V0.301
			c-0.654-0.103-1.329-0.172-2.047-0.172c-0.717,0-1.393,0.069-2.046,0.172v7.877c0,0.614-0.497,1.112-1.112,1.112
			c-0.612,0-1.109-0.498-1.109-1.112V1.373C9.035,2.455,7,4.603,6.209,7.038c-0.35,1.072-0.326,3.018-1.521,3.698
			c-0.331,0.188-0.938,0.453-0.938,0.877L3.44,14.41c0,0.241,0.168,0.761,0.715,0.809c0.379,0.012,0.705,0.086,1.037,0.199
			c0.281,7.336,2.165,14.825,11.055,14.825c8.891,0,10.774-7.488,11.055-14.825c0.332-0.113,0.659-0.188,1.039-0.199
			c0.546-0.048,0.715-0.567,0.715-0.809L28.743,11.613z M16.247,28.018c-5.625,0-8.277-3.521-8.777-11.695
			c1.57,0.535,4.046,1.063,8.777,1.063c4.732,0,7.209-0.527,8.777-1.063C24.526,24.497,21.873,28.018,16.247,28.018z"/>
	</g>
</g>
<g id="Layer_3" display="none">
	<g display="inline">
		
			<path fill="none" stroke="#323232" stroke-width="2.5" stroke-linecap="round" stroke-linejoin="round" stroke-miterlimit="10" d="
			M12.542,25.645c0,2.184,1.769,3.953,3.951,3.953c2.184,0,3.953-1.77,3.953-3.953"/>
		
			<path fill="none" stroke="#323232" stroke-width="2.5" stroke-linecap="round" stroke-linejoin="round" stroke-miterlimit="10" d="
			M27.484,19.37L27.484,19.37l-0.219-8.066c0-5.948-4.822-10.771-10.771-10.771c-5.947,0-10.77,4.822-10.77,10.771L5.516,19.37
			c-1.733,0-3.139,1.404-3.139,3.139c0,1.732,1.405,3.137,3.139,3.137h21.968c1.732,0,3.139-1.404,3.139-3.137
			C30.623,20.774,29.216,19.37,27.484,19.37z"/>
		
			<path fill="none" stroke="#323232" stroke-width="2.5" stroke-linecap="round" stroke-linejoin="round" stroke-miterlimit="10" d="
			M15.865,5.078c-3.09,0-5.597,2.506-5.597,5.596"/>
	</g>
</g>
<g id="Layer_4">
	<g>
		<path fill="#323232" stroke="#323232" stroke-miterlimit="10" d="M15.611,20.061c-5.393,0-9.781-4.387-9.781-9.779
			c0-5.395,4.389-9.782,9.781-9.782c5.394,0,9.781,4.388,9.781,9.782C25.392,15.674,21.005,20.061,15.611,20.061z M15.611,2.443
			c-4.323,0-7.839,3.516-7.839,7.839c0,4.321,3.516,7.841,7.839,7.841c4.326,0,7.839-3.52,7.839-7.841
			C23.451,5.958,19.937,2.443,15.611,2.443z"/>
		<path fill="#323232" stroke="#323232" stroke-miterlimit="10" d="M16.229,20.065c6.902,0,12.714,5.974,13.683,9.808h1.984
			c-0.889-4.923-7.695-11.748-15.667-11.748c-7.953,0-14.743,6.825-15.63,11.748h1.982C3.551,26.039,9.345,20.065,16.229,20.065z"/>
	</g>
</g>
<g id="Layer_5" display="none">
	<g display="inline">
		<defs>
			<rect id="SVGID_1_" x="4.248" y="3.186" width="24" height="24"/>
		</defs>
		<clipPath id="SVGID_2_">
			<use xlink:href="#SVGID_1_"  overflow="visible"/>
		</clipPath>
		
			<line clip-path="url(#SVGID_2_)" fill="none" stroke="#2C2B2A" stroke-width="2" stroke-miterlimit="10" x1="26.248" y1="15.186" x2="9.248" y2="15.186"/>
		<polyline clip-path="url(#SVGID_2_)" fill="none" stroke="#2C2B2A" stroke-width="2" stroke-miterlimit="10" points="
			15.248,22.186 8.248,15.186 15.248,8.186 		"/>
	</g>
</g>
<g id="Layer_6" display="none">
	<g display="inline">
		<g>
			<g>
				<polygon fill="#484848" points="28.372,27.286 4.123,27.286 4.123,19.223 6.336,19.223 6.336,25.073 26.159,25.073 
					26.159,19.223 28.372,19.223 				"/>
			</g>
		</g>
		<g>
			<g>
				<rect x="15.14" y="3.087" fill="#484848" width="2.214" height="17.037"/>
			</g>
			<g>
				<polygon fill="#484848" points="16.247,22.323 7.934,14.01 9.499,12.444 16.247,19.192 22.995,12.444 24.56,14.01 				"/>
			</g>
		</g>
	</g>
</g>
<g id="Layer_7" display="none">
	<path id="_x30_3" display="inline" fill="#4A4A4A" d="M26.12,24.958l-4.27-4.269c1.543-1.845,2.386-4.147,2.386-6.581
		c0-2.746-1.069-5.326-3.011-7.268s-4.521-3.01-7.267-3.01S8.633,4.9,6.692,6.841s-3.01,4.521-3.01,7.268
		c0,2.745,1.068,5.326,3.01,7.267c1.94,1.941,4.521,3.011,7.266,3.011c2.435,0,4.738-0.843,6.582-2.387l4.27,4.27
		c0.182,0.182,0.418,0.271,0.656,0.271c0.236,0,0.473-0.09,0.654-0.271C26.481,25.908,26.481,25.321,26.12,24.958z M8.001,20.066
		c-1.591-1.592-2.467-3.707-2.467-5.957s0.876-4.366,2.468-5.957c1.591-1.592,3.706-2.468,5.956-2.468
		c2.251,0,4.366,0.876,5.957,2.468c1.591,1.591,2.468,3.707,2.468,5.957s-0.877,4.365-2.469,5.956
		c-1.59,1.592-3.706,2.468-5.957,2.468C11.708,22.533,9.592,21.657,8.001,20.066z"/>
</g>
<g id="Layer_8" display="none">
	<path display="inline" fill="#4A4A4A" d="M282.197,62.27v-3.842c0-3.107,2.527-5.635,5.635-5.635c3.108,0,5.636,2.527,5.636,5.635
		v3.842h0.626c0.221,0,0.43,0.045,0.627,0.115v-3.957c0-3.797-3.09-6.887-6.889-6.887c-3.798,0-6.887,3.09-6.887,6.887v3.957
		c0.197-0.07,0.405-0.115,0.626-0.115H282.197z"/>
	<g display="inline">
		<path fill="none" d="M4.744,19.344c0,4.251,3.297,7.808,7.352,7.929c2.084,0.063,4.029-0.696,5.516-2.136
			c1.484-1.442,2.304-3.376,2.304-5.445v-2.569H4.744V19.344z"/>
		<path fill="none" d="M12.329,1.716c-3.423,0-6.206,2.784-6.206,6.207v4.16h12.412v-4.16C18.535,4.5,15.751,1.716,12.329,1.716z"/>
		<path fill="#4A4A4A" d="M19.224,12.083h-0.689H6.123H5.433H3.365v2.068v5.192c0,4.989,3.897,9.163,8.689,9.308
			c0.092,0.004,0.186,0.004,0.279,0.004c2.344,0,4.551-0.893,6.236-2.529c1.757-1.703,2.723-3.988,2.723-6.435v-5.54v-2.068H19.224z
			 M19.915,14.152v2.971v2.569c0,2.069-0.819,4.003-2.304,5.445c-1.486,1.439-3.432,2.198-5.516,2.136
			c-4.055-0.121-7.352-3.678-7.352-7.929v-2.222v-2.971v-0.703h15.171V14.152z"/>
	</g>
	<path display="inline" fill="#4A4A4A" d="M288.604,70.485c0,0.426-0.345,0.771-0.771,0.771l0,0c-0.427,0-0.771-0.346-0.771-0.771
		v-0.909c0-0.427,0.345-0.772,0.771-0.772l0,0c0.427,0,0.771,0.346,0.771,0.772V70.485z"/>
</g>
<g id="Layer_9" display="none">
	<path display="inline" fill="none" stroke="#515151" stroke-width="1.5" stroke-miterlimit="10" d="M16.232,7.83
		c0.002,0,0.005,0.001,0.006,0.001c0.003,0,0.005-0.001,0.007-0.001c2.138-0.003,3.873,1.728,3.876,3.866
		c0.002,2.139-1.728,3.875-3.863,3.877c-0.007,0-0.013,0-0.02,0c-0.005,0-0.012,0-0.017,0c-2.137-0.002-3.868-1.738-3.864-3.877
		S14.095,7.827,16.232,7.83z"/>
	<path display="inline" fill="none" stroke="#515151" stroke-width="1.5" stroke-miterlimit="10" d="M16.248,2.643
		c5.004,0,9.059,4.056,9.059,9.059c0.004,2.164-0.318,3.664-1.547,5.632c-1.23,1.967-7.512,10.396-7.512,10.396
		S9.966,19.3,8.736,17.333c-1.229-1.968-1.551-3.468-1.547-5.632C7.189,6.699,11.244,2.643,16.248,2.643z"/>
</g>
<g id="Layer_10" display="none">
	<g display="inline">
		<path fill="#3A444F" d="M30.032,12.382l-3.099-0.51c-0.203-0.654-0.466-1.281-0.78-1.877l1.828-2.578
			c0.244-0.346,0.205-0.818-0.096-1.117l-2.752-2.754c-0.3-0.299-0.771-0.338-1.117-0.094l-2.578,1.828
			c-0.597-0.314-1.223-0.576-1.877-0.781l-0.51-3.1c-0.069-0.42-0.432-0.727-0.858-0.727H14.3c-0.426,0-0.788,0.307-0.857,0.727
			l-0.511,3.1c-0.652,0.205-1.279,0.467-1.875,0.781L8.479,3.453C8.132,3.207,7.661,3.248,7.362,3.546L4.608,6.298
			C4.309,6.599,4.269,7.072,4.514,7.416l1.828,2.578c-0.313,0.592-0.573,1.213-0.776,1.859l-3.108,0.529
			c-0.418,0.072-0.724,0.434-0.724,0.857v3.893c0,0.424,0.306,0.785,0.724,0.855l3.109,0.531c0.203,0.652,0.469,1.279,0.784,1.875
			l-1.835,2.555c-0.248,0.348-0.209,0.82,0.092,1.121l2.754,2.754c0.168,0.168,0.391,0.256,0.614,0.256
			c0.177,0,0.354-0.055,0.507-0.164l2.557-1.836c0.596,0.316,1.222,0.58,1.875,0.783l0.529,3.111
			c0.07,0.418,0.433,0.725,0.856,0.725h3.893c0.425,0,0.786-0.307,0.858-0.725l0.528-3.111c0.653-0.203,1.28-0.467,1.876-0.783
			l2.556,1.836c0.151,0.109,0.329,0.164,0.506,0.164c0.224,0,0.447-0.088,0.615-0.256l2.753-2.754
			c0.302-0.301,0.34-0.773,0.092-1.121l-1.834-2.555c0.318-0.602,0.585-1.234,0.79-1.896l3.099-0.51
			c0.42-0.068,0.729-0.432,0.729-0.855V13.24C30.76,12.814,30.452,12.451,30.032,12.382z M29.022,16.394l-1.689,0.277l-0.909,0.15
			l-0.901,0.146c-0.121,0.627-0.301,1.232-0.54,1.809c-0.006,0.014-0.01,0.029-0.016,0.045c-0.245,0.586-0.547,1.141-0.899,1.66
			l0.533,0.742l0.533,0.744l1.001,1.395l-1.709,1.709l-1.396-1l-0.743-0.533l-0.743-0.535c-0.51,0.348-1.055,0.646-1.629,0.889
			c-0.025,0.01-0.051,0.018-0.076,0.027c-0.568,0.234-1.165,0.416-1.781,0.535l-0.154,0.902l-0.154,0.91l-0.289,1.693h-2.426
			l-0.288-1.693l-0.155-0.91l-0.152-0.902c-0.617-0.119-1.213-0.301-1.781-0.535c-0.025-0.01-0.053-0.018-0.078-0.027
			c-0.574-0.242-1.119-0.541-1.629-0.889l-0.742,0.533l-0.744,0.535l-1.395,1l-1.71-1.709l1.001-1.395l0.534-0.744l0.533-0.742
			c-0.347-0.51-0.646-1.055-0.888-1.629c-0.011-0.023-0.018-0.051-0.028-0.076c-0.235-0.568-0.415-1.164-0.536-1.783l-0.901-0.152
			l-0.911-0.156l-1.69-0.289v-2.424l1.69-0.287l0.911-0.154l0.901-0.154c0.119-0.605,0.295-1.191,0.523-1.75
			c0.016-0.037,0.025-0.074,0.041-0.107c0.239-0.568,0.531-1.105,0.873-1.611l-0.53-0.746l-0.53-0.748L6.356,7.009l1.715-1.715
			l1.403,0.996l0.749,0.531l0.748,0.529c0.512-0.346,1.062-0.641,1.639-0.885c0.025-0.01,0.053-0.018,0.079-0.027
			c0.566-0.232,1.159-0.41,1.773-0.527l0.149-0.902l0.148-0.908l0.278-1.689h2.417l0.277,1.689l0.15,0.908l0.148,0.902
			c0.615,0.117,1.207,0.295,1.773,0.527c0.026,0.01,0.054,0.018,0.078,0.027c0.578,0.242,1.127,0.539,1.64,0.885l0.748-0.529
			l0.749-0.531l1.403-0.996l1.715,1.717l-0.995,1.402l-0.531,0.748L24.083,9.91c0.346,0.512,0.643,1.063,0.884,1.639
			c0.011,0.027,0.019,0.053,0.028,0.08c0.232,0.564,0.409,1.158,0.527,1.771l0.901,0.15l0.909,0.148l1.689,0.277V16.394z"/>
		<path fill="#3A444F" d="M16.248,10.039c-2.839,0-5.147,2.309-5.147,5.146s2.309,5.146,5.147,5.146
			c2.837,0,5.146-2.309,5.146-5.146S19.084,10.039,16.248,10.039z M16.248,18.593c-1.88,0-3.409-1.529-3.409-3.408
			s1.529-3.408,3.409-3.408c1.878,0,3.407,1.529,3.407,3.408S18.125,18.593,16.248,18.593z"/>
	</g>
</g>
<g id="Layer_11" display="none">
	<path display="inline" fill="#4A4A4A" d="M31.387,11.636c-0.201-0.617-0.857-1.352-2.842-1.352h-7.74l-2.393-7.361
		c-0.611-1.89-1.516-2.285-2.164-2.285c-0.65,0-1.553,0.396-2.166,2.285l-2.393,7.361H3.954c-1.988,0-2.645,0.734-2.846,1.354
		c-0.199,0.615-0.104,1.598,1.506,2.766l6.262,4.547L6.483,26.31c-0.4,1.232-0.377,2.168,0.068,2.783
		c0.303,0.414,0.766,0.641,1.307,0.641c0.613,0,1.33-0.295,2.129-0.877l6.262-4.547l6.26,4.547c0.801,0.582,1.516,0.877,2.129,0.877
		l0,0c0.543,0,1.006-0.227,1.307-0.641c0.447-0.615,0.471-1.551,0.068-2.783l-2.391-7.359l6.262-4.547
		C31.489,13.236,31.588,12.253,31.387,11.636z M28.827,12.949l-6.789,4.932c-0.314,0.23-0.447,0.637-0.328,1.004l2.594,7.982
		c0.172,0.527,0.205,0.865,0.197,1.047c-0.16-0.043-0.463-0.166-0.936-0.51l-6.787-4.932c-0.129-0.094-0.281-0.152-0.439-0.166
		c-0.225-0.023-0.441,0.037-0.621,0.166L8.93,27.404c-0.471,0.342-0.773,0.465-0.934,0.508c-0.008-0.18,0.023-0.518,0.195-1.045
		l2.592-7.979c0.043-0.133,0.055-0.271,0.035-0.406c-0.033-0.24-0.162-0.457-0.361-0.602L3.67,12.949
		c-0.451-0.326-0.676-0.582-0.775-0.73c0.17-0.064,0.5-0.139,1.059-0.139h8.389c0.178,0,0.352-0.053,0.498-0.15
		c0.168-0.111,0.295-0.277,0.357-0.471l1.295-3.986c0.004-0.014,0.012-0.035,0.018-0.049l1.281-3.945
		c0.172-0.529,0.346-0.82,0.457-0.963c0.111,0.143,0.285,0.434,0.455,0.963l2.594,7.979c0.092,0.287,0.32,0.506,0.605,0.588
		c0.021,0.006,0.045,0.012,0.068,0.018c0.061,0.012,0.125,0.018,0.188,0.018h8.387c0.555,0,0.887,0.074,1.055,0.137
		C29.502,12.367,29.276,12.623,28.827,12.949z"/>
</g>
<g id="Layer_12" display="none">
	<g display="inline">
		<g>
			<path fill="#FFFFFF" d="M2.476,4.169c-1.438,0-2.607,1.17-2.607,2.607v17.051c0,1.439,1.17,2.607,2.607,2.607h27.545
				c1.438,0,2.605-1.168,2.605-2.607V6.777c0-1.438-1.168-2.607-2.605-2.607H2.476z"/>
		</g>
		<g>
			<g>
				<g>
					<g>
						<path fill="#4A4A4A" d="M30.021,27.66H2.476c-2.5,0-4.535-2.035-4.535-4.537V7.248c0-2.502,2.035-4.535,4.535-4.535h27.545
							c2.5,0,4.533,2.033,4.533,4.535v15.875C34.554,25.625,32.521,27.66,30.021,27.66z M2.476,4.64
							c-1.438,0-2.607,1.168-2.607,2.607v15.875c0,1.439,1.17,2.609,2.607,2.609h27.545c1.438,0,2.605-1.17,2.605-2.609V7.248
							c0-1.439-1.168-2.607-2.605-2.607H2.476z"/>
					</g>
				</g>
			</g>
			<g>
				<g>
					<g>
						<rect x="-1.18" y="7.517" fill="#4A4A4A" width="34.771" height="5.977"/>
					</g>
				</g>
			</g>
			<g>
				<g>
					<path fill="#4A4A4A" d="M17.14,18.658c0,0.492-0.404,0.898-0.898,0.898H2.712c-0.494,0-0.896-0.406-0.896-0.898v-2.225
						c0-0.494,0.402-0.9,0.896-0.9h13.529c0.494,0,0.898,0.406,0.898,0.9V18.658z"/>
				</g>
			</g>
		</g>
	</g>
</g>
<g id="Layer_13" display="none">
	<g display="inline">
		<g>
			<path fill="#4A4A4A" d="M24.269,29.417H8.224c-0.824,0-1.496-0.672-1.496-1.498V10.107c0-0.412,0.336-0.748,0.748-0.748
				c0.414,0,0.748,0.336,0.748,0.748v17.813h16.045V10.107c0-0.412,0.336-0.748,0.748-0.748c0.414,0,0.748,0.336,0.748,0.748v17.813
				C25.765,28.746,25.095,29.417,24.269,29.417z"/>
		</g>
		<g>
			<path fill="#4A4A4A" d="M25.976,10.031H6.519c-1.139,0-2.063-1.102-2.063-2.457c0-1.354,0.924-2.455,2.063-2.455h19.457
				c1.137,0,2.063,1.102,2.063,2.455C28.039,8.929,27.113,10.031,25.976,10.031z M6.519,6.617c-0.268,0-0.566,0.408-0.566,0.957
				s0.299,0.959,0.566,0.959h19.457c0.268,0,0.566-0.41,0.566-0.959s-0.299-0.957-0.566-0.957H6.519z"/>
		</g>
		<g>
			<path fill="#4A4A4A" d="M17.8,6.617c-0.412,0-0.748-0.336-0.748-0.75V3.255c0-0.443-0.361-0.807-0.805-0.807
				c-0.445,0-0.807,0.363-0.807,0.807v2.611c0,0.414-0.334,0.75-0.748,0.75c-0.412,0-0.748-0.336-0.748-0.75V3.255
				c0-1.27,1.033-2.301,2.303-2.301s2.303,1.031,2.303,2.301v2.611C18.55,6.281,18.214,6.617,17.8,6.617z"/>
		</g>
		<g>
			<path fill="#4A4A4A" d="M11.574,29.417c-0.412,0-0.748-0.336-0.748-0.75V9.281c0-0.412,0.336-0.748,0.748-0.748
				s0.748,0.336,0.748,0.748v19.387C12.322,29.082,11.986,29.417,11.574,29.417z"/>
		</g>
		<g>
			<path fill="#4A4A4A" d="M21.128,29.417c-0.412,0-0.748-0.336-0.748-0.75V9.281c0-0.412,0.336-0.748,0.748-0.748
				c0.414,0,0.748,0.336,0.748,0.748v19.387C21.876,29.082,21.542,29.417,21.128,29.417z"/>
		</g>
		<g>
			<path fill="#4A4A4A" d="M16.351,29.417c-0.412,0-0.748-0.336-0.748-0.75V9.281c0-0.412,0.336-0.748,0.748-0.748
				c0.414,0,0.748,0.336,0.748,0.748v19.387C17.099,29.082,16.765,29.417,16.351,29.417z"/>
		</g>
	</g>
</g>
<g id="Layer_14" display="none">
	<g display="inline">
		<g>
			<path fill="#4A4A4A" d="M25.636,32.414H6.859c-1.191,0-2.159-0.968-2.159-2.159V0.119c0-1.191,0.968-2.16,2.159-2.16h18.777
				c1.191,0,2.159,0.969,2.159,2.16v30.136C27.795,31.446,26.828,32.414,25.636,32.414z M6.859-0.19
				c-0.168,0-0.309,0.141-0.309,0.309v30.136c0,0.168,0.141,0.31,0.309,0.31h18.777c0.168,0,0.309-0.142,0.309-0.31V0.119
				c0-0.168-0.141-0.309-0.309-0.309H6.859z"/>
		</g>
		<g>
			<path fill="#4A4A4A" d="M26.871,5.006H5.625C5.113,5.006,4.7,4.592,4.7,4.082c0-0.512,0.413-0.925,0.925-0.925h21.246
				c0.512,0,0.925,0.413,0.925,0.925C27.795,4.592,27.382,5.006,26.871,5.006z"/>
		</g>
		<g>
			<path fill="#4A4A4A" d="M26.871,27.173H5.625c-0.512,0-0.925-0.414-0.925-0.926c0-0.51,0.413-0.924,0.925-0.924h21.246
				c0.512,0,0.925,0.414,0.925,0.924C27.795,26.759,27.382,27.173,26.871,27.173z"/>
		</g>
		<path fill="#4A4A4A" d="M18.497,1.492c0,0.291-0.235,0.526-0.526,0.526h-3.445C14.235,2.018,14,1.783,14,1.492l0,0
			c0-0.29,0.235-0.526,0.525-0.526h3.445C18.261,0.965,18.497,1.202,18.497,1.492L18.497,1.492z"/>
		<circle fill="#4A4A4A" cx="16.248" cy="28.947" r="1.047"/>
	</g>
</g>
</svg>
